<?xml version="1.0" encoding="UTF-8"?><!DOCTYPE svg PUBLIC "-//W3C//DTD SVG 1.1//EN" "http://www.w3.org/Graphics/SVG/1.1/DTD/svg11.dtd"><svg xmlns="http://www.w3.org/2000/svg" xmlns:xlink="http://www.w3.org/1999/xlink"><symbol id="detail-title" viewBox="0 0 24 24">
	<polygon points="0,0 2,0 10,24 8,24"/>
	<g transform="translate(4,0)">
		<polygon points="0,0 2,0 10,24 8,24"/>
	</g>
	
	<g transform="translate(8,0)">
		<polygon points="0,0 2,0 10,24 8,24"/>
	</g>

	<g transform="translate(12,0)">
		<polygon points="0,0 2,0 10,24 8,24"/>
	</g>
</symbol><symbol id="mala" viewBox="0 0 61.403 70.931">

	<g id="linhas">
		<path d="M30.77 4.365L3.811 19.884 3.74 51.045l26.888 15.642 26.959-15.519.071-31.161zm-.002.53L57.129 20.27l-.07 30.632-26.43 15.255L4.27 50.781l.069-30.632z"/>
		
		<path d="M30.781.122L.08 17.754 0 53.158l30.62 17.772 30.7-17.632.082-35.404L30.781.122zm-.001.53l30.093 17.506-.08 34.874L30.621 70.4.527 52.894l.08-34.874L30.78.652z"/>

		 


		<path d="M30.7 12.474A23.052 23.052 0 0 0 7.653 35.526v.02A23.052 23.052 0 0 0 30.72 58.577a23.052 23.052 0 0 0 23.037-23.062A23.052 23.052 0 0 0 30.7 12.474zm0 .543a22.523 22.509 0 0 1 22.528 22.5 22.523 22.509 0 0 1-22.509 22.517 22.523 22.509 0 0 1-22.537-22.49v-.018A22.523 22.509 0 0 1 30.7 13.016z"/>
		
		<path d="M30.7 15.347a20.179 20.179 0 0 0-20.174 20.179v.017a20.179 20.179 0 0 0 20.192 20.162 20.179 20.179 0 0 0 20.166-20.187 20.179 20.179 0 0 0-20.183-20.17zm0 .53a19.65 19.65 0 0 1 19.655 19.641 19.65 19.65 0 0 1-19.638 19.658 19.65 19.65 0 0 1-19.662-19.633v-.016A19.65 19.65 0 0 1 30.7 15.877z"/>
	</g>

	

	<path id="circulo-branco" d="M13.37 35.531a17.33 17.33 0 0 1 17.327-17.33 17.33 17.33 0 0 1 17.334 17.323 17.33 17.33 0 0 1-17.319 17.337 17.33 17.33 0 0 1-17.341-17.316" fill="#fff"/>
	
	<path d="M28.807 28.628a.901.901 0 0 0-.6.207.633.633 0 0 0-.246.502v1.18h-2.536c-.54 0-1.004.163-1.392.488-.387.325-.58.714-.58 1.166v6.142c0 .453.193.842.58 1.167.388.325.852.487 1.392.487H37.26c.54 0 1.004-.162 1.391-.487.387-.325.581-.714.581-1.167v-6.142c0-.452-.194-.841-.581-1.166-.387-.325-.851-.487-1.391-.487h-2.537v-1.181a.633.633 0 0 0-.246-.502.9.9 0 0 0-.599-.207h-5.072zm.281.945h4.51v.945h-4.51z" fill="currentcolor"/>

</symbol><symbol id="sign" viewBox="0 0 431.616 431.616">
<g>
	<g>
		<path d="M421.387,136.704c-0.512-0.512-1.024-1.024-2.048-2.048l-76.8-66.56c-3.072-3.072-7.168-4.608-11.776-4.608h-158.72V0
			h-35.84v64H23.563c-9.728,0-17.92,8.192-17.92,17.92v133.12c0,9.728,8.192,17.92,17.92,17.92h112.64v198.656h35.84V232.96h158.72
			c4.096,0,8.704-1.536,11.776-4.608l76.8-66.56C427.531,155.136,428.043,143.872,421.387,136.704z"/>
	</g>
</g>
<g>
</g>
<g>
</g>
<g>
</g>
<g>
</g>
<g>
</g>
<g>
</g>
<g>
</g>
<g>
</g>
<g>
</g>
<g>
</g>
<g>
</g>
<g>
</g>
<g>
</g>
<g>
</g>
<g>
</g>
</symbol></svg>